<svg width="199" height="76" viewBox="0 0 199 76" fill="none" xmlns="http://www.w3.org/2000/svg">
<g clip-path="url(#clip0_15_286)">
<path fill-rule="evenodd" clip-rule="evenodd" d="M28.1451 76L50.2112 43.2962H50.206C58.902 30.4159 62.4313 28.4603 79.0141 28.4603H145.151L164.18 0H76.5062C54.3104 0 48.0346 3.23 35.0167 22.9109L0 76H28.1451ZM79.4134 33.0047H142.311L124.868 59.6521H79.74C71.469 59.6521 69.6394 60.2459 65.535 66.5159L59.3269 76H33.2289L52.5226 46.5262C60.099 34.96 62.711 33.0047 79.4134 33.0047ZM199 0L149.115 76H118.265L168.016 0H199ZM166.155 73.5933C167.192 75.2003 168.497 76 170.067 76C171.637 76 172.928 75.2003 173.949 73.6091C174.969 72.0179 175.478 70.0466 175.478 67.7034C175.478 65.36 174.964 63.3888 173.939 61.7816C172.913 60.1747 171.618 59.375 170.047 59.375C168.477 59.375 167.175 60.1747 166.145 61.7659C165.113 63.3571 164.595 65.3283 164.595 67.6716C164.595 70.015 165.113 71.9862 166.155 73.5933ZM166.802 62.7238C167.672 61.3621 168.75 60.6812 170.036 60.6812C171.326 60.6812 172.404 61.3621 173.269 62.7238C174.135 64.0854 174.571 65.74 174.571 67.6876C174.571 69.635 174.135 71.2816 173.269 72.6353C172.399 73.9891 171.326 74.6621 170.036 74.6621C168.745 74.6621 167.667 73.9812 166.802 72.6197C165.936 71.2579 165.501 69.6112 165.501 67.6716C165.501 65.7321 165.936 64.0854 166.802 62.7238ZM168.974 72.3188V69.0571L168.979 69.065H170.196L171.228 72.3266H172.488L171.352 68.8274C171.735 68.5584 172.006 68.21 172.167 67.7747C172.327 67.3391 172.404 66.6741 172.404 65.7796C172.404 64.885 172.208 64.2121 171.813 63.7688C171.42 63.3174 170.828 63.0959 170.047 63.0959H167.777V72.3188H168.974ZM168.953 67.6241V64.5209H169.943C170.798 64.5209 171.223 65.0353 171.223 66.0724C171.223 66.6188 171.14 67.0146 170.974 67.26C170.813 67.5053 170.545 67.6241 170.172 67.6241H168.953Z" fill="#FF0000"/>
</g>
<defs>
<clipPath id="clip0_15_286">
<rect width="199" height="76" fill="white"/>
</clipPath>
</defs>
</svg>
